<svg id="Logo" xmlns="http://www.w3.org/2000/svg" width="162.03" height="45" viewBox="0 0 162.03 45">
  <defs>
    <style>
      .cls-1, .cls-2 {
        fill: #5f7cdc;
        fill-rule: evenodd;
      }

      .cls-1 {
        opacity: 0.59;
      }
    </style>
  </defs>
  <path id="DEV" class="cls-1" d="M1535.19,339.59v14h5.6a7,7,0,1,0,.06-14h-5.66Zm1.6,1.539h4.02a5.47,5.47,0,1,1,.06,10.937h-4.08V341.129Zm23.68,0V339.59h-9.5v14h9.76v-1.519h-8.16v-4.8h7.06v-1.539h-7.06v-4.6h7.9Zm8.86,12.456,5.72-14h-1.68l-4.84,12.136-4.82-12.136h-1.72l5.68,14h1.66Z" transform="translate(-1413 -317)"/>
  <path id="Forme_20" data-name="Forme 20" class="cls-2" d="M1432.09,332.616l-1.02,6.877-7.14,10.4,2.4-1.317,39.17-21.485,7.3-4Zm-0.25-1.814,30.72-6.959-1.98-.273-8.07-1.114-17.12-2.365L1413,317l8.22,6.017,10.31,7.558Zm69.43,25.5c-0.35,1.989-.55,2.428-4.78,5.695l-1.01-1.381c3.24-2.63,3.65-2.933,3.96-4.686l3.04-17.184,1.96-.269Zm2.39-24.4,1.96-.269-0.67,3.81-1.93.265Zm3.38,18.833c-0.03.309-.06,0.609-0.06,0.881,0,1.383.54,2.091,2.84,2.091a13.972,13.972,0,0,0,5.82-1.586l0.47,1.448a14.455,14.455,0,0,1-6.52,1.786c-3.09,0-4.51-1.214-4.51-3.7a8.687,8.687,0,0,1,.18-1.62l0.97-5.528c0.75-4.175,2.92-6.233,7.14-6.233,2.67,0,4.37,1.347,4.37,3.808,0,2.63-1.76,4.046-6.26,5.294-3.18.873-4.03,1.109-4.03,1.109Zm8.87-8.69c0-1.485-.98-2.156-2.71-2.156-2.94,0-4.49,1.517-5.07,4.752l-0.37,2.087s0.64-.166,3.82-1.01C1514.66,344.914,1515.91,343.8,1515.91,342.052Zm3.72,11.121a3.864,3.864,0,0,1,.07-0.644l2.16-12.3h-3.14l0.27-1.619h3.17l0.71-4.008,1.93-.269-0.74,4.277H1529l-0.38,1.619h-4.87l-2.12,12.1a3.957,3.957,0,0,0-.08.61c0,0.636.34,0.8,1.12,0.8a8.938,8.938,0,0,0,3.28-.772l0.48,1.277a8.433,8.433,0,0,1-4.1,1.114C1520.68,355.362,1519.63,354.657,1519.63,353.173Zm-69.06-12.838a15.458,15.458,0,0,1,6.66-2.058,2.642,2.642,0,0,1,2.87,2.088,14.568,14.568,0,0,1,6.77-2.088c2.26,0,3.01,1.486,3.01,3.27a7.518,7.518,0,0,1-.18,1.614l-2.09,11.865h-4.06l2.06-11.693a2.07,2.07,0,0,0,.04-0.443,0.678,0.678,0,0,0-.85-0.7,13.452,13.452,0,0,0-4.9,1.918l-1.93,10.918h-4.06l2.06-11.693a2.07,2.07,0,0,0,.04-0.443c0-.432-0.2-0.7-0.85-0.7a13.452,13.452,0,0,0-4.9,1.918l-1.93,10.918h-4.06l2.19-12.261m36.58,12.261h-3.42l-0.04-1.82a7.825,7.825,0,0,1-5.37,2.156c-2.85,0-3.83-1.514-3.83-3.739a10.666,10.666,0,0,1,.17-1.719l0.85-4.785c0.77-4.45,1.83-6.842,8.18-6.842a25.657,25.657,0,0,1,6.22,1.046Zm-1.73-13.108a12.617,12.617,0,0,0-2.34-.236c-2.6,0-3.11,1.078-3.48,3.232l-1.01,5.762a1.8,1.8,0,0,0-.04.405c0,0.608.38,0.877,1.12,0.877,1.28,0,3.14-1.216,4.39-2.459Zm7.1-3,4.16-.568-2.94,16.677h-4.06Zm1.25-7.008,4.16-.57-0.81,4.581-4.16.606Zm6.77,0,4.15-.57-4.19,23.687h-4.06Z" transform="translate(-1413 -317)"/>
</svg>
